<svg xmlns="http://www.w3.org/2000/svg" viewBox="0 0 1080 710"><defs><style>.cls-1{fill:#00b24f;}.cls-2{fill:#046241;}.cls-3{fill:#f2c200;}.cls-4{fill:#03b351;}.cls-5{fill:#05b452;}.cls-6{fill:#06b453;}.cls-7{fill:#03b350;}.cls-8{fill:#07b453;}.cls-9{fill:#08b554;}.cls-10{fill:#0ab555;}.cls-11{fill:#01b34f;}.cls-12{fill:#04b351;}.cls-13{fill:#04b452;}.cls-14{fill:#07b454;}.cls-15{fill:#0eb658;}.cls-16{fill:#0bb656;}.cls-17{fill:#0bb657;}.cls-18{fill:#02b350;}.cls-19{fill:#01b24f;}.cls-20{fill:#11b75a;}.cls-21{fill:#19ba60;}.cls-22{fill:#18ba5f;}.cls-23{fill:#00b451;}.cls-24{fill:#429f75;}.cls-25{fill:#01b350;}</style></defs><g id="fomutur"><path class="cls-1" d="M77,259.41a102.13,102.13,0,0,1,57.57-21c59.44-3.06,94.88,39.85,101.76,77.5,6,32.83,1.09,64.92-15.35,94.39a339.74,339.74,0,0,1-80.3,96.28c-2.58,2.15-4,1-5.93-.32C116.83,493.67,108.21,475.59,103,455c-6.37-25.2,3.75-45,19.22-63.34,1.26-1.5,2.86-3.11,5.12-2.24,2.42.92,3.46,3,3.53,5.53a13.86,13.86,0,0,0,1.2,6.28c1.52,2.9,3.81,4.62,7.17,4.43a45.81,45.81,0,0,0,13.12-2.78c2.4-.86,3.1-2.75,3.33-5a20.41,20.41,0,0,1,2.54-8.5c3.15-5.37,6.93-6,11.84-1.94a44.44,44.44,0,0,0,3.42,2.9c3.53,2.4,6.82,2.94,10.17-.69,2.34-2.55,5.32-4.5,7.93-6.82,3.77-3.34,3.84-5.42.35-9.05-2.82-2.93-5.22-6-5.07-10.4.15-4.78,2.72-7.74,7.47-8.28,1.32-.15,2.66-.2,4-.47,6.84-1.43,7.48-2.27,7.6-9.32,0-2.48.21-5,.34-7.45.24-4.79-2.11-7.49-6.83-7.81-.67,0-1.34,0-2,0-4.61.09-8.84-1-10.89-5.46-2.15-4.72.67-8.21,3.81-11.43,4.1-4.2,4.2-6.45.62-11.66-7.35-16-19.08-28.25-33.49-38-8.25-5.57-17.87-8-27.64-9.57-3.12-.51-6.23-1.09-9.35-1.61-4.22-.82-8.47-.42-12.7-.27-9.22,2.48-19,3-27.59,7.68A2.67,2.67,0,0,1,77,259.41Z"/><path class="cls-2" d="M560.18,353.05c9.72-23.51,19.08-45.95,28.23-68.48,1.29-3.19,2.72-4.62,6.4-4.47,7.81.34,15.65.24,23.47,0,3.13-.08,4.32.61,4.3,4.05q-.2,49,0,98.05c0,3.71-1.33,4.44-4.62,4.29a148.21,148.21,0,0,0-15.49,0c-3.66.21-4.8-.78-4.76-4.62.22-19.57.1-39.15.1-58.84-2.18.47-2.05,2.51-2.61,3.84-7.73,18.47-15.45,37-22.92,55.54-1.27,3.16-2.82,4.3-6.17,4.07-5.46-.37-12.23,1.6-16.08-1s-4.84-9.39-6.93-14.42c-6.68-16-13.29-32.09-20.08-48.51-1.3,1.41-.83,2.72-.84,3.84,0,18.42-.11,36.84.06,55.25,0,3.54-.59,5.08-4.57,4.81-5.47-.37-11-.21-16.48,0-2.75.08-3.78-.68-3.77-3.6q.13-49.53,0-99.05c0-3.34,1.29-3.77,4.11-3.72,8,.16,16,.28,24,0,3.5-.14,4.9,1.19,6.12,4.19,8.63,21.15,17.43,42.22,26.18,63.32C558.41,349.09,559.08,350.55,560.18,353.05Z"/><path class="cls-2" d="M77,259.41c9.48-4.84,20-6.19,30.1-8.85,4.61,1.23,9.4-.34,14,.87,20.88,1.84,39.37,8.54,53.57,24.88,5.83,6.71,12.4,12.76,15.62,21.34a7.58,7.58,0,0,1,.71,3.81c-2.13-1.82-4.29-3.6-6.38-5.47-4.59-4.12-7.4-4.21-12.25-.32a7.14,7.14,0,0,0-1.12,1c-6,7.6-14.19,1.75-15.57-5.44-1.89-9.83-2.12-9.8-12.07-10.56-1.82-.14-3.66-.11-5.49-.07-4.43.11-7.17,2-7.43,6.79a31.71,31.71,0,0,1-1.39,7.78c-1.5,4.78-4,5.86-8.8,4.29a19.87,19.87,0,0,1-7.78-5.23c-2.5-2.54-4.88-2.38-7.55-.64-1.39.9-2.81,1.79-4.1,2.82-8.77,7-9.24,10.12-3.29,19.48,1.8,2.84,4.72,5.56,2.31,9.43s-6.08,4.82-10.29,4.88c-8.49.11-10,2-8.94,10.42a22.3,22.3,0,0,1-.12,5.94c-.68,4.68,1.85,6.72,5.93,7.57,1.79.37,3.63.48,5.41.88,7.3,1.66,9.64,6.71,6.08,13.33A14.9,14.9,0,0,1,94.51,373c-7.81,6.13-16.34,10.8-26.48,11.77-12.46,1.19-20.85-3.64-24.88-16-9.62-29.45-3.83-77.13,24-101.84A58.07,58.07,0,0,1,77,259.41Z"/><path class="cls-2" d="M734.48,316.54c-.65,11.14,1.33,24.63-1.44,37.94-4.24,20.35-19.22,32.94-40,33.6-6.49.21-13,.2-19.35-1.5-17.38-4.65-29-18.08-30.51-37-1.74-22.18-.33-44.44-.71-66.66,0-2.8,1.53-2.77,3.51-2.75,5.83.05,11.67.21,17.49-.06,3.44-.16,4.51.82,4.47,4.37-.18,17.75-.09,35.51-.07,53.26,0,2.32,0,4.65.24,7,1.3,12.56,9,19.92,20.68,19.79s19.43-7.66,20.13-20.28c.52-9.43.23-18.9.25-28.36,0-10.62.13-21.24-.06-31.86-.06-3.13.92-4,4-3.87,5.82.22,11.67.3,17.48,0,3.57-.2,4.09,1.26,4,4.3C734.39,294.37,734.48,304.33,734.48,316.54Z"/><path class="cls-2" d="M938.76,316.24c-.48,9.72.77,21.68-.69,33.59-2.92,23.72-19.13,38.09-43.11,38.31-6.87.06-13.64-.3-20.2-2.49-16.21-5.39-27.07-19.79-27.66-38.77-.67-21.22-.23-42.47-.37-63.71,0-2.49.91-3.05,3.19-3,6,.13,12,.24,18,0,3.31-.15,4.13.9,4.1,4.12-.15,17.92-.06,35.84-.08,53.76a47.16,47.16,0,0,0,.84,9.4c2.28,11.3,9.49,17.38,20.44,17.1s18.37-7,19.69-18.55c1.17-10.24.37-20.55.48-30.83s.16-20.58,0-30.86c-.07-3.31.94-4.29,4.21-4.14a165.81,165.81,0,0,0,17,0c3.71-.21,4.38,1.22,4.31,4.54C938.63,294.45,938.76,304.24,938.76,316.24Z"/><path class="cls-2" d="M304.87,333.33c0-16.25.1-32.5-.07-48.75,0-3.36.67-4.5,4.3-4.46q27.7.28,55.43,0c3.5,0,4.62.93,4.41,4.42a121.59,121.59,0,0,0,0,14.91c.22,3.48-1.16,4.1-4.27,4.05-10-.17-20,.06-30-.13-3.3-.07-4.95.56-4.56,4.28.57,5.38-2.3,12.62,1.13,15.68,3,2.67,10.12.75,15.42.86,4.64.09,10.82-1.57,13.5.76,3.1,2.7.85,9,.95,13.75.17,8.56.05,8.56-8.46,8.56-6,0-12,.26-18-.09-3.94-.24-4.68,1.21-4.6,4.79.23,10.11,0,20.23.15,30.34.06,3.2-.73,4.39-4.11,4.23-5.82-.26-11.66-.24-17.47,0-3.15.13-3.91-.94-3.88-4C305,366.17,304.87,349.75,304.87,333.33Z"/><path class="cls-2" d="M790.63,280.21c13.32,0,26.64.08,40-.07,3.12,0,4.47.6,4.27,4.05-.3,5.29-.21,10.62,0,15.92.09,2.63-.8,3.43-3.4,3.38-8-.13-16,.13-24-.13-3.55-.11-4.44,1-4.42,4.45.14,24.55,0,49.1.18,73.64,0,4.21-1.16,5.4-5.28,5.11a129.09,129.09,0,0,0-16,0c-3.38.18-4.09-1-4.08-4.2.13-24.71,0-49.43.18-74.14,0-4-1.12-5-5-4.84-7.64.3-15.31-.1-23,.17-3.47.12-4.19-1.17-4.06-4.28.23-5,.25-9.95,0-14.92-.16-3.2.75-4.25,4.12-4.2C763.66,280.32,777.15,280.21,790.63,280.21Z"/><path class="cls-3" d="M168.06,338.36a26.21,26.21,0,1,1-52.41,0,26.21,26.21,0,0,1,52.41,0Z"/><path class="cls-4" d="M928.1,412.36c0,3.61,0,6.52,0,9.43,0,1.52-.3,2.55-2.17,2.55s-2-1.21-2-2.64c0-5,0-10,0-14.94,0-1.3-.79-3.24,1.68-3.39,2-.13,3.83-.21,4.77,2.37,1.43,4,3.3,7.77,5.38,12.57,1.94-4.44,3.7-8,5-11.63.94-2.63,2.38-3.81,5.16-3.3s1.7,2.84,1.76,4.4c.15,4.48,0,9,.06,13.45,0,1.55.1,3.06-2.15,3.09s-2.28-1.4-2.26-3a20.65,20.65,0,0,0-1-7.85,62.59,62.59,0,0,1-2.73,6.14c-1,1.72-.73,4.56-3.72,4.69s-2.84-2.78-3.84-4.47C930.76,417.63,930.43,414.9,928.1,412.36Z"/><path class="cls-4" d="M613.11,413.4c-1.33,3-2.49,6.13-4,9s-3.58,2.81-5.07,0c-1.66-3.1-2.91-6.43-5-9.47,0,2.94,0,5.88,0,8.81,0,1.5-.22,2.56-2.12,2.53s-2.07-1.19-2.07-2.64c0-5,0-9.92,0-14.89,0-1.32-.7-3.22,1.67-3.43,1.84-.16,3.59-.25,4.49,2,1.63,4.14,3.48,8.19,5.53,12.95,2-4.5,3.81-8.34,5.29-12.31.87-2.35,2.31-3,4.56-2.7,2.7.36,1.68,2.47,1.72,3.88.12,4.8,0,9.6,0,14.4,0,1.36.06,2.72-2,2.66-1.86-.05-2.08-1.19-2.06-2.67,0-2.73,0-5.46,0-8.19Z"/><path class="cls-5" d="M460.55,413.12c0,3,0,5.93,0,8.89,0,1.7-.77,2.39-2.43,2.3-1.48-.07-2-.85-2-2.24,0-5.46,0-10.92,0-16.38,0-1.06.14-2.05,1.39-2.25a3.36,3.36,0,0,1,3.83,1.56,56.25,56.25,0,0,0,7.46,9.84c0-3,0-6,0-8.95,0-1.5.27-2.55,2.14-2.56s2.06,1.15,2.06,2.6c0,5,0,9.92,0,14.88,0,1.17.81,2.84-1,3.4s-3.06-.56-4-2.08c-2-3.14-4.13-6.22-6.21-9.33Z"/><path class="cls-5" d="M648.15,412.65c0,3.11,0,6.22,0,9.33,0,1.64-.59,2.43-2.34,2.36s-1.86-1-1.85-2.29c0-5.46,0-10.92,0-16.38,0-1-.15-2.09,1.27-2.26s2.89,0,3.86,1.52a45.35,45.35,0,0,0,7.31,9.38c0-2.65,0-5.3,0-7.95,0-1.6,0-3,2.24-3s2.18,1.48,2.18,3c0,5,0,9.93,0,14.9,0,1.09.36,2.44-1.19,2.89s-2.81-.26-3.71-1.69c-2.2-3.46-4.49-6.85-6.74-10.27Z"/><path class="cls-6" d="M347.59,413.12c0,2.44.06,4.88,0,7.32-.05,1.67.72,4-2.33,3.87-2.68-.08-2-2.11-2-3.64q-.07-6.94,0-13.9c0-1.23-.55-2.85,1.29-3.31s3.1.22,4.13,1.89c2,3.31,4.28,6.49,7.23,10.92,0-4.39,0-7.3,0-10.21,0-1.34-.11-2.74,1.93-2.7,1.84,0,2.11,1.14,2.11,2.64,0,5.13,0,10.26,0,15.39,0,1.12.28,2.44-1.28,2.83a2.91,2.91,0,0,1-3.34-1.54c-2.14-3.29-4.31-6.56-6.47-9.84Z"/><path class="cls-5" d="M988.36,414.25c0-2.7,0-5.4,0-8.1,0-1.73.35-2.91,2.45-2.79,1.89.11,2,1.32,2,2.75,0,4.8.05,9.59,0,14.39,0,1.33.81,3.18-1.35,3.72s-3-1-3.89-2.39a49.37,49.37,0,0,0-7.4-9.3c0,3.07,0,6.14,0,9.2,0,1.45-.17,2.59-2.08,2.62s-2.13-1-2.12-2.53c0-5-.06-9.93.05-14.88,0-1.27-.93-3.18,1.46-3.57,1.88-.3,3.09.55,4.07,2.13,1.88,3,3.9,6,5.85,9Z"/><path class="cls-4" d="M824.94,414.33c0-2.77,0-5.53,0-8.3,0-1.38-.06-2.66,1.95-2.69,1.83,0,2.24.92,2.23,2.47,0,5.31,0,10.61,0,15.91,0,.93.3,2.13-1,2.46a2.84,2.84,0,0,1-3.37-1.4c-2.28-3.57-4.68-7-7.91-11.89,0,4.39,0,7.28,0,10.17,0,1.45.34,3.13-2,3.23s-2-1.67-2-3.08c0-4.81-.06-9.61,0-14.42,0-1.17-.72-2.83,1.17-3.33s3.09.46,4.07,2c1.92,3.07,4,6.08,6,9.11Z"/><path class="cls-4" d="M534,414.41q0-4.35,0-8.7c0-1.23.09-2.3,1.78-2.36s2.42.58,2.41,2.29c0,5.47,0,10.93,0,16.4,0,1,0,2.07-1.35,2.24a3.13,3.13,0,0,1-3.23-1.78,60.79,60.79,0,0,0-7.74-10.16c0,3,0,6,0,9,0,1.66-.15,3-2.32,2.92s-1.68-1.69-1.69-2.92c0-5-.06-9.94,0-14.91,0-1.19-.59-2.83,1.49-3.09a3.2,3.2,0,0,1,3.37,1.55c2.1,3.27,4.26,6.49,6.39,9.73Z"/><path class="cls-7" d="M866.09,414.38c0-2.57,0-5.15,0-7.73,0-1.44-.39-3.14,1.94-3.26s2.05,1.62,2.06,3.05c0,5,0,9.94,0,14.9,0,1.05.51,2.49-1.14,2.87-1.46.34-2.44-.29-3.27-1.6-2.19-3.5-4.55-6.9-7.73-11.67,0,4.51,0,7.68,0,10.84,0,1.49-.18,2.58-2.1,2.56s-2.09-1.16-2.09-2.62c0-5.13,0-10.27,0-15.4,0-1.05-.5-2.49,1.16-2.86A3.3,3.3,0,0,1,858.8,405c2,3.21,4.15,6.37,6.23,9.56Z"/><path class="cls-7" d="M339,411.39a49.49,49.49,0,0,1,0,6c-.55,4.6-3.78,7.3-8.59,7.26-4.57,0-7.8-2.08-8.36-6.8-.46-3.94-.34-7.95-.51-11.92-.06-1.57.47-2.47,2.23-2.57,2.21-.13,2.37,1.14,2.34,2.82-.06,3.15,0,6.31,0,9.46,0,3,1.47,4.9,4.42,4.92,2.77,0,4.14-2.09,4.31-4.62.21-3.31.09-6.64.08-10,0-1.47.19-2.59,2.1-2.61s2.12,1.11,2.09,2.58c0,1.82,0,3.65,0,5.47Z"/><path class="cls-8" d="M639.87,411.15a47.37,47.37,0,0,1,0,6c-.64,4.95-3.9,7.64-8.84,7.54s-7.86-2.61-8.34-7.47c-.38-3.78-.15-7.62-.23-11.43,0-1.63.63-2.45,2.35-2.4s2.09,1.18,2.08,2.67c0,3.31,0,6.63,0,9.94,0,2.51,1.35,4.25,3.75,4.54,2.7.32,4.5-1.24,4.76-4,.3-3.28.32-6.6.42-9.9.06-1.66-.26-3.48,2.4-3.3,2.46.17,1.69,2,1.78,3.33.1,1.49,0,3,0,4.48Z"/><path class="cls-6" d="M460.2,444.15c-2,.86-3.62.27-5.45-.77-2.73-1.54-5.55-1.24-7.53,1.41a6.82,6.82,0,0,0,0,8.71c1.94,2.6,4.68,3.06,7.51,1.45,1.68-.95,3.28-1.5,5.15-.81-1.54,4.54-4.5,6.22-9.86,5.63-4.93-.54-8.41-4.4-8.82-9.78-.4-5.17,2.69-10,7.18-11.17C453.79,437.37,457.67,439.09,460.2,444.15Z"/><path class="cls-9" d="M960.35,413.4v-1.49c0-9.05,1.29-10.11,10.17-8.6,1.27.22,2.24.41,2.24,2,0,1.76-1.22,1.68-2.38,1.73a27.11,27.11,0,0,1-3,0c-1.94-.16-2.65.66-2.64,2.59s.78,2.14,2.39,2.27c1.37.11,3.69-1.24,3.89,1.55.23,3.11-2.28,2.15-3.88,2.2s-2.42.5-2.4,2.28.49,2.57,2.51,2.8,5.59-1.79,5.24,2c-.28,3-3.82,1.5-5.86,1.57-6.28.21-6.28.08-6.29-6.42Z"/><path class="cls-10" d="M333.89,459.67c-5.25,1.71-5.89-1.71-5.46-6.39.21-2.29-.07-4.63.06-6.93s-1.15-6.29.66-7c3-1.2,6.8-.5,10.26-.56,1,0,1.48.55,1.46,1.55s-.13,2-1.45,2.16a11.72,11.72,0,0,0-2,.11c-1.59.47-4.3-1.43-4.52,2.05s2.46,2.27,4.17,2.45c1.38.15,2.12.64,2.1,2.11s-1,1.4-2,1.49c-1.9.18-4.52-1-4.31,2.8.19,3.56,2.72,1.93,4.34,2.28,1.45.31,3.65-.71,3.65,2s-2.29,1.58-3.67,1.84A22.36,22.36,0,0,1,333.89,459.67Z"/><path class="cls-10" d="M575.42,449.19V446.7c0-8,2.46-9.85,10.66-8,1.13.25,1.8.57,1.75,1.84s-.41,1.92-1.67,2c-.83,0-1.67,0-2.49.06-1.61.18-3.88-.87-3.83,2.3,0,2.73,1.91,2.15,3.46,2.23,1.35.06,2.74-.07,2.7,2,0,2.26-1.75,1.62-2.88,1.58-2.11-.08-3.42.15-3.33,2.85s1.79,2.24,3.39,2.28c1,0,2,0,3,.06,1.27.06,1.62.86,1.66,2s-.6,1.79-1.77,1.79c-2.83,0-5.66,0-8.49,0-1.86,0-2.18-1-2.15-2.53C575.45,454.49,575.43,451.84,575.42,449.19Z"/><path class="cls-5" d="M422,419c-3.26,5.07-7.07,6.6-12,5.09S402.73,418.85,403,413c.24-5,3.07-8.54,7.78-9.7s8.51.74,11,5.29a4.67,4.67,0,0,1-4.69-.15c-3.19-2-6.07-1.79-8.34,1.2a6.54,6.54,0,0,0,.15,8.7c2.23,2.66,5,3,8,1C418.43,418.36,420.05,418.5,422,419Z"/><path class="cls-5" d="M892.28,408.63a6.74,6.74,0,0,1-6-.8c-2.72-1.59-5.3-.69-7.06,1.6a6.85,6.85,0,0,0,0,8.76c1.74,2.31,4.29,3.25,7,1.68,1.83-1,3.58-1.61,5.63-1-1.5,4.25-4.72,6.21-9.34,5.7-5.18-.56-8.52-4-9.21-9.49A10.52,10.52,0,0,1,880,403.68C885.1,401.91,889.07,403.43,892.28,408.63Z"/><path class="cls-11" d="M799,447.18a52.13,52.13,0,0,1,0,5.45c-.45,4.51-3.32,7-7.93,7.19-5.08.16-8.46-2.05-9-6.6-.48-4.09-.21-8.26-.3-12.4,0-1.39.47-2,2-2.11,1.88-.08,2.21.85,2.18,2.41-.06,2.81-.07,5.63,0,8.44.08,3.17.63,6.29,4.73,6.16,3.77-.13,4.28-3,4.25-6.06,0-2.81,0-5.62,0-8.44,0-1.45.1-2.53,2.07-2.52s2.14,1,2.11,2.52c0,2,0,4,0,6Z"/><path class="cls-5" d="M691.15,408.55a5.53,5.53,0,0,1-5.54-.58c-2.87-1.73-5.6-1-7.48,1.57a6.81,6.81,0,0,0,.12,8.75c2,2.45,4.71,3.14,7.53,1.32a6.31,6.31,0,0,1,5.57-.58c-2.22,4.59-5.9,6.07-10.49,5.51-4.9-.59-8.38-4.77-8.71-10a10.36,10.36,0,0,1,7.45-11C684.52,402.08,688.28,403.71,691.15,408.55Z"/><path class="cls-12" d="M888.82,454.12c-3.06,5.26-7,6.9-12.16,5.34-4.45-1.33-7.1-5.53-6.88-10.88.2-5,3.23-9,7.56-9.85,5.57-1.15,8.83.4,11.31,5.44-2,.77-3.67.29-5.52-.8a5.39,5.39,0,0,0-7.54,1.47,6.7,6.7,0,0,0,.07,8.74,5.41,5.41,0,0,0,7.57,1.33A7,7,0,0,1,888.82,454.12Z"/><path class="cls-12" d="M427,448.84v-1.49c0-9,0-9,8.9-8.59,1.27.06,3.2-.81,3.25,1.74,0,2.38-1.63,2-3.1,2.07h-1.49c-1.53,0-3-.15-3,2.18,0,2.12,1.22,2.35,2.88,2.43,1.36.06,3.31-.54,3.34,1.82,0,2.56-2.05,1.65-3.28,1.64-2,0-3,.44-3,2.75,0,2.54,1.55,2.47,3.28,2.44a21.29,21.29,0,0,1,3,.08c1.32.15,1.35,1.2,1.37,2.21a1.31,1.31,0,0,1-1.48,1.51c-.34,0-.67,0-1,0C427,460.59,427,460.59,427,448.84Z"/><path class="cls-5" d="M509.15,438.56c1.74,0,3.23.08,4.47,1.14s2.87,2.65,1.85,4.12-2.85,1-4-.73a2.55,2.55,0,0,0-3.51-.91,2.21,2.21,0,0,0-1.43,2.36c.32,1.46,1.54,2,2.91,2.37,2.23.59,4.68.89,6.13,3a6.08,6.08,0,0,1,0,7.05c-2.13,3.28-5.6,3.28-9,2.63a5.66,5.66,0,0,1-4.54-4.73c-.17-.76-.41-1.85.68-2s2.44-.62,3.07.76a4.29,4.29,0,0,0,1.69,2.34,3.08,3.08,0,0,0,4.37-1c1.21-1.75.31-3.18-1.4-4a15.25,15.25,0,0,0-2.86-.86c-3.45-.9-5.87-2.81-5.21-6.65S505.76,438.33,509.15,438.56Z"/><path class="cls-5" d="M834.47,438.56c2-.1,4.27.29,5.67,2.57.61,1,1.4,2.16.23,3.08a2.4,2.4,0,0,1-3.16-.34c-.6-.55-1.05-1.33-1.73-1.7a2.37,2.37,0,0,0-3.4,1c-.87,1.44-.2,2.64,1.18,3.23s3.22.82,4.72,1.48c3.16,1.38,4.53,3.86,3.56,7.23-1.18,4.15-4.45,4.9-8.23,4.7-3.47-.19-5.47-2.07-6.22-5.35-.19-.83-.16-1.72,1-1.73.93,0,2-.42,2.7.61a9.56,9.56,0,0,0,1.63,2.37c1.79,1.32,3.54.8,4.71-.93,1.3-1.92,0-3.09-1.63-3.88a20,20,0,0,0-3.32-1c-3.32-.93-5.15-3-4.58-6.53S830.74,438.54,834.47,438.56Z"/><path class="cls-5" d="M597.17,438.57c1.71-.07,3.4.09,4.65,1.36s2.75,2.59,1.39,4.14c-1,1.18-2.66.66-3.72-.88-1-1.37-2.4-1.9-3.89-.83a2.75,2.75,0,0,0-1.19,2c.23,1.71,1.66,2.23,3.21,2.63,2.71.7,5.73,1.14,6.57,4.5.92,3.72-.26,6.58-4,8-4,1.47-8.59-.17-9.87-3.43-.39-1-1.13-2.43.19-3.09,1.1-.56,2.68-.66,3.29,1.06a3.39,3.39,0,0,0,2,2.09,3,3,0,0,0,4.2-1.46c.88-1.65,0-2.9-1.52-3.61a18.78,18.78,0,0,0-3.31-1.06c-3.33-.87-5.24-2.9-4.92-6.42C590.54,440.35,593.25,438.53,597.17,438.57Z"/><path class="cls-12" d="M919.64,459.9a5.89,5.89,0,0,1-5.33-3.52c-.56-1.11-1.27-2.74.23-3.52a2.18,2.18,0,0,1,3.23,1.29,4,4,0,0,0,1.59,1.77,2.87,2.87,0,0,0,4.29-1c1-1.66.43-3.28-1.47-4-1.69-.67-3.59-.88-5.18-1.71a5.05,5.05,0,0,1-2.8-6.25c1.06-3.69,3.93-4.54,7.41-4.36,2.75.13,4.8,1.13,5.65,3.92.66,2.16-.74,2.1-2.17,2s-1.63-1.53-2.58-2.14a2.59,2.59,0,0,0-3.89.77c-1.17,1.72,0,2.77,1.51,3.43a16.18,16.18,0,0,0,2.86.82c3.78.89,5.83,3.06,5.16,7.1S924.61,459.77,919.64,459.9Z"/><path class="cls-13" d="M747,438.56a6,6,0,0,1,4.31,1.28c1.26,1.13,2.6,2.7,1.27,4.21-1.14,1.3-2.66.45-3.7-.93a2.56,2.56,0,0,0-3.48-1,2.2,2.2,0,0,0-1.45,2.35c.23,1.59,1.54,2,2.84,2.38.64.18,1.27.41,1.92.55,3.3.76,5.34,2.56,5.26,6.17a5.7,5.7,0,0,1-4.93,6c-3.36.66-6.81.62-8.79-2.85-.6-1.05-2-2.77-.23-3.82a2.28,2.28,0,0,1,3.51,1.51,3,3,0,0,0,2.69,1.94,3.23,3.23,0,0,0,3.53-2.16c.59-1.58-.39-2.57-1.64-3.18a16.38,16.38,0,0,0-3.31-1.06c-3.58-.92-5.56-3-4.86-6.85C740.59,439.5,743.29,438.5,747,438.56Z"/><path class="cls-14" d="M766.77,413.94v-3c0-7.73,2.2-9.36,10-7.65,1.38.3,2.07.82,2,2.26s-1.14,1.41-2.13,1.45a33.86,33.86,0,0,1-3.49,0c-1.82-.11-2.19.87-2.22,2.44s.41,2.33,2.21,2.42c1.36.08,3.67-1.23,3.92,1.51.28,3.1-2.22,2.23-3.83,2.24s-2.31.63-2.31,2.33.53,2.54,2.51,2.75c1.79.19,5.19-1.7,5.14,1.66-.06,3.59-3.63,1.84-5.55,1.87-7.26.14-6.15.89-6.25-6.34C766.76,416.59,766.77,415.27,766.77,413.94Z"/><path class="cls-15" d="M484.13,413.76v-2c0-9.51,0-9.49,9.69-8.51,1.4.14,2.7.15,2.74,2s-1,2.22-2.58,2.17c-1,0-2,0-3,0-1.62,0-2.38.62-2.39,2.34s1,2.08,2.5,2.19,4-1,3.9,2.17c-.07,2.88-2.33,1.83-3.68,1.79-2.8-.06-2.59,1.67-2.79,3.57s1.39,5-2.35,4.73c-3.57-.21-1.7-3.26-2-5.06A34,34,0,0,1,484.13,413.76Z"/><path class="cls-15" d="M789.08,413.71v-2c0-9.27.25-9.47,9.73-8.46,1.43.15,2.68.22,2.69,2.06s-1.11,2.18-2.62,2.12c-.82,0-1.65,0-2.48,0-1.67,0-2.9.25-2.85,2.39,0,1.86,1.07,2,2.55,2.15s4-.91,3.85,2.23c-.13,2.85-2.39,1.75-3.74,1.74-3.32,0-2.48,2.27-2.68,4.11s1,4.42-2.45,4.23c-3-.17-1.85-2.59-2-4.17C789,418,789.08,415.86,789.08,413.71Z"/><path class="cls-9" d="M307,413.63v-2c0-9,.67-9.58,9.81-8.34,1.22.17,2.29.18,2.38,1.82.1,1.79-.77,2.36-2.39,2.31-1.16,0-2.33,0-3.49,0-1.42,0-2.05.68-2.12,2.13-.07,1.71.6,2.46,2.29,2.39.83,0,1.67,0,2.5,0,1.56,0,1.9,1,1.88,2.29A1.53,1.53,0,0,1,316,416c-4.2-.7-5.2,1.36-4.77,5,.19,1.6.4,3.49-2.29,3.35-2.45-.11-1.81-1.91-1.84-3.26C307,418.6,307,416.11,307,413.63Z"/><path class="cls-6" d="M851.38,438.73c2.16,0,4.32,0,6.48,0,1.38,0,2.13.38,2.11,2s-.55,2.3-2,2c-4.41-.83-4.32,1.91-4.19,4.94s0,5.95,0,8.93c0,1.82,0,3.23-2.55,3.14-2.3-.08-2.18-1.46-2.18-3,0-3.32-.1-6.63,0-9.94.11-2.61,0-4.65-3.57-4.08-1.32.21-2.59.15-2.65-1.89-.07-2.46,1.56-2.05,3-2.07C847.72,438.71,849.55,438.73,851.38,438.73Z"/><path class="cls-16" d="M1003.74,403.31h6c1.24,0,2.29.17,2.38,1.8s-.73,2.56-2.35,2.29c-3.68-.6-4,1.47-3.84,4.31.16,3.29,0,6.6,0,9.9,0,1.34.14,2.67-1.88,2.76-2.21.09-2.35-1.24-2.33-2.87,0-3.3-.11-6.6,0-9.9.11-2.65-.17-4.6-3.61-4.2-1.45.17-3.14.21-3.08-2.09s1.77-2,3.21-2C1000.1,403.27,1001.92,403.3,1003.74,403.31Z"/><path class="cls-9" d="M524.78,439.1c6.84-1.71,6.47,5.1,9.83,7.27,3.61-1.68,3-9,10-7.3-1.17,1.78-2.11,3.42-3.25,4.9-3,3.86-5.47,7.84-4.58,13.07.23,1.35.07,2.71-1.94,2.63-1.23-.05-2.68-.07-2.36-1.7C534.05,450.14,528.19,445.24,524.78,439.1Z"/><path class="cls-12" d="M405.34,439.11c7-1.95,6.43,5.29,10,7.23,3.49-2,3-9,9.94-7.24-1.39,2.07-2.59,4-3.95,5.82-2.74,3.63-5,7.34-4.15,12.21.25,1.39,0,2.67-2,2.53-1-.07-2.33,0-2.06-1.39C414.72,450.29,408.91,445.19,405.34,439.11Z"/><path class="cls-17" d="M685.1,448.91c0-2.32,0-4.63,0-7,0-1.66-.29-3.38,2.38-3.27,2.36.09,2,1.66,2.06,3.11,0,3,.22,6,0,8.93-.33,3.68.62,5.68,4.77,4.95a21.13,21.13,0,0,1,3,0c1.59-.07,1.93.81,1.9,2.18,0,1.21-.49,1.83-1.74,1.83-3.49,0-7,0-10.47,0-2,0-1.83-1.47-1.83-2.8Q685.1,452.89,685.1,448.91Z"/><path class="cls-18" d="M770.83,438.74c2.15,0,4.3,0,6.45,0,1.36,0,2.19.36,2.2,1.92s-.58,2.32-2,2c-4.81-.92-4.46,2.18-4.35,5.28.1,2.63.11,5.28,0,7.91-.07,1.57,1,3.92-2.25,3.78s-1.91-2.52-2-4a77.72,77.72,0,0,1,0-8.9c.15-2.69-.16-4.59-3.61-4.06-1.26.19-2.7.28-2.79-1.78-.11-2.33,1.41-2.18,2.94-2.18Z"/><path class="cls-18" d="M470.14,438.74c2,0,4,0,6,0,1.58,0,2.52.38,2.44,2.21-.08,1.65-1.11,2-2.33,1.76-4.32-.84-4.4,1.72-4.24,4.84.16,3.29,0,6.6,0,9.91,0,1.27-.17,2.2-1.83,2.24s-2.41-.52-2.36-2.25c.08-2.81,0-5.62,0-8.43,0-3.26,1.15-7.42-4.8-6.34-1.28.24-1.54-.91-1.54-2s.39-1.92,1.68-1.92Z"/><path class="cls-19" d="M701.8,449c0-2.15-.09-4.31,0-6.45.1-1.58-.94-3.89,2.28-3.79,2.84.09,1.94,2.15,2,3.57a72.2,72.2,0,0,1,0,9.42c-.33,3.44,1.11,4.4,4.23,4a31.24,31.24,0,0,1,3.49,0c1.43,0,2.08.58,2,2.09,0,1.21-.5,1.85-1.72,1.86-3.48,0-7,0-10.45,0-2.1,0-1.82-1.47-1.83-2.76C701.79,454.25,701.81,451.6,701.8,449Z"/><path class="cls-20" d="M899.81,413.65c0,2.81,0,5.62,0,8.42,0,1.75-.87,2.31-2.45,2.31S895,423.63,895,422q.08-8.18,0-16.34c0-1.75.88-2.31,2.46-2.31s2.37.75,2.33,2.43C899.75,408.37,899.81,411,899.81,413.65Z"/><path class="cls-21" d="M698.6,413.89c0,2.48,0,4.95,0,7.43,0,1.58,0,3.05-2.21,3.08s-2.37-1.23-2.35-2.92q.08-7.69,0-15.37c0-1.75.39-2.9,2.44-2.83,1.82.06,2.12,1.2,2.11,2.67C698.58,408.6,698.6,411.24,698.6,413.89Z"/><path class="cls-22" d="M866.83,449.25c0,2.63,0,5.27,0,7.9,0,1.45-.15,2.58-2.06,2.57-1.59,0-2.5-.42-2.48-2.19q0-8.38,0-16.77c0-1.84,1.09-2.08,2.59-2.07s2,.83,1.94,2.18C866.81,443.66,866.83,446.46,866.83,449.25Z"/><path class="cls-5" d="M804,413.38c0-2.64,0-5.28,0-7.93,0-1.42.52-2.11,2-2.11s2.15.57,2.14,2q0,8.43,0,16.86c0,1.42-.6,2.06-2.07,2.11-1.91.07-2.14-1-2.12-2.53C804,419,803.94,416.19,804,413.38Z"/><path class="cls-5" d="M429.18,413.87c0,2.81,0,5.62,0,8.43,0,1.46-.7,2-2.14,2s-2-.67-2-2.09q0-8.43,0-16.86c0-1.46.63-2.06,2.1-2s2.09.67,2.08,2.1C429.16,408.25,429.18,411.06,429.18,413.87Z"/><path class="cls-5" d="M951.92,413.45c0-2.48,0-4.95,0-7.43,0-1.39,0-2.66,2-2.69,1.82,0,2.24.91,2.24,2.47,0,5.28,0,10.57,0,15.86,0,1.41-.06,2.61-2,2.68-2.33.09-2.18-1.43-2.18-2.95C951.92,418.74,951.91,416.1,951.92,413.45Z"/><path class="cls-5" d="M665,413.62c0-2.65,0-5.29,0-7.94,0-1.25.13-2.28,1.79-2.34s2.41.6,2.4,2.3q-.06,8.17,0,16.36c0,1.65-.62,2.41-2.36,2.34s-1.85-1-1.84-2.29C665,419.24,665,416.43,665,413.62Z"/><path class="cls-1" d="M821,449.3v-7.89c0-1.12.35-1.89,1.7-1.77,1.11.1,1.26.86,1.26,1.7q0,8.13,0,16.27c0,1,0,2-1.45,2s-1.52-.94-1.52-1.95C820.94,454.88,821,452.09,821,449.3Z"/><path class="cls-23" d="M826.51,435.2c-1.21,2-2.52,3.65-5.24,3.91C822.79,435.05,822.79,435.05,826.51,435.2Z"/><path class="cls-24" d="M121.06,251.43c-4.67-.38-9.44,1-14-.87C111.71,250.92,116.49,249.46,121.06,251.43Z"/><path class="cls-2" d="M429.2,278.38c-31.75,0-54.3,22.76-54.34,54.87,0,32.32,22.2,54.86,54.12,54.86,31.75,0,54-22.42,54-54.39C483,301.28,460.77,278.39,429.2,278.38Zm12.2,83.08a29.05,29.05,0,0,1-31.2-4.28c-10.54-9.28-12.92-28.71-5.09-41.67,6.83-11.31,21-16.15,33.95-11.27s17.59,15.22,18.38,28C458.12,344.88,451.78,356.41,441.4,361.46Z"/><path class="cls-2" d="M1035.81,381.48c-5.91-12.59-11.78-25.2-17.8-37.74-1.09-2.27-1.29-3.41,1.32-5,13.63-8.22,18.77-22.24,14.43-38.3-3.24-11.95-14.08-19.58-29.56-20-14-.4-28-.09-42-.29-3,0-3.66,1-3.52,3.7.19,4,0,8,0,12,0,28.71.08,57.42-.1,86.13,0,3.81,1.05,4.84,4.75,4.63a142,142,0,0,1,16,0c3.61.2,4.9-.68,4.8-4.58-.3-10.95-.19-21.91,0-32.86,0-1.72-1.74-4.86,1.94-5,3-.14,6.3-1.38,8.06,3.31,4.5,11.92,9.65,23.59,14.55,35.36.74,1.77,1,3.82,3.82,3.78,8.27-.13,16.54-.05,25.39-.05C1037.06,384.41,1036.49,382.92,1035.81,381.48ZM1001,326.61a16,16,0,0,1-2,.38c-15,1.53-15,1.53-15-13.63,0-3.31.16-6.64-.05-9.94-.16-2.68.89-3.45,3.44-3.33,3.82.18,7.65,0,11.47.12,7.74.36,12.23,4.6,12.8,11.84S1008.18,325,1001,326.61Z"/><path class="cls-6" d="M763.45,411.42c-1.55-6.21-7.15-9.32-15.6-8-5.75.89-1.44,5.71-2.71,8.44a5.18,5.18,0,0,0,0,2c0,2.65,0,5.3,0,7.95,0,1.59.48,2.55,2.22,2.56,3.32,0,6.68.36,9.88-.81A10.21,10.21,0,0,0,763.45,411.42Zm-11.7,8.8c-1-.11-2.09-.23-2.12-1.52-.08-3.14-.13-6.28,0-9.41.07-2,1.81-1.41,3-1.58,4.18-.06,6.57,2.26,6.47,6.32S755.81,420.65,751.75,420.22Z"/><path class="cls-8" d="M371.67,403.34c-7.5-.5-7.5-.5-7.5,6.71a80.55,80.55,0,0,1-.06,8.93c-.49,4.33.88,6.34,4.94,5.37,5,.08,9.18-.49,11.93-4.6C385.83,412.49,381,404,371.67,403.34Zm-.05,16.76c-5.75.14-1.64-4.52-3.27-6.41,1.07-2.22-1.82-6.27,3.52-6,4,.2,6.2,2,6.27,6C378.22,418,375.64,420,371.62,420.1Z"/><path class="cls-12" d="M573.85,403a10.8,10.8,0,1,0,.27,21.6c6.08-.12,10.42-4.71,10.35-10.92A10.39,10.39,0,0,0,573.85,403Zm0,17.52c-3.84-.3-6-2.54-6-6.51s2.5-7.2,6.06-6.94c3.87.29,5.85,2.68,6.06,5.7C580.1,417.51,577.34,420.83,573.84,420.56Z"/><path class="cls-4" d="M901.68,438.57c-6.6-.15-10.74,3.71-10.91,10.17s3.74,10.91,10,11.08,10.78-3.92,11-10.2S907.85,438.71,901.68,438.57Zm5.63,10.79c-.19,3.75-2.07,6.12-5.52,6.43-4.17,0-6.88-2.88-6.66-6.82.21-3.72,2-6.26,6-6.37C904.84,442.5,907.51,445.41,907.31,449.36Z"/><path class="cls-12" d="M442.77,403c-6.14,0-10.55,4.49-10.6,10.78s4.34,10.77,10.53,10.82,10.46-4.29,10.49-10.75S448.94,403,442.77,403Zm.08,17.52c-3.44.31-6.48-3-6.28-6.82s2.09-6.28,6-6.63c3.35-.3,6.41,3.15,6.34,7.26C448.55,417.65,446.73,420.2,442.85,420.56Z"/><path class="cls-4" d="M671.82,438.57c-6.37,0-10.61,4.11-10.69,10.47s4.16,10.73,10.44,10.78c6.44.06,10.53-4,10.57-10.52S678.26,438.61,671.82,438.57Zm-.54,17.22c-3.28-.25-5.37-2.38-5.64-6.21-.28-4,2.19-6.89,5.88-7s6.43,2.75,6.42,6.63A6.53,6.53,0,0,1,671.28,455.79Z"/><path class="cls-12" d="M1023.36,403c-6.19-.12-10.56,4.28-10.62,10.66s4.06,10.87,10.29,10.95A10.28,10.28,0,0,0,1033.75,414C1033.81,407.71,1029.49,403.15,1023.36,403Zm-.06,17.54c-3.41.25-6.44-3.18-6.24-6.9s2.25-6.2,6.1-6.55c3.42-.3,6.32,3.1,6.24,6.49C1029.06,417.77,1027.22,420.28,1023.3,420.57Z"/><path class="cls-4" d="M560.86,411.14c-1.27-5.66-7.26-8.94-15.33-7.71-5.76.87-1.36,5.71-2.67,8.43-.26.53,0,1.3,0,2,0,2.65,0,5.3,0,7.95,0,1.54.35,2.56,2.17,2.56,3.16,0,6.36.27,9.41-.71C559.32,422,562.08,416.59,560.86,411.14Zm-4.1,2.8c-.33,4.06-2.8,6.15-6.9,6.24-5.52.12-1.52-4.23-3.21-6.06,1.7-2-2.4-6.53,3.43-6.43C554.11,407.75,557.05,410.26,556.76,413.94Z"/><path class="cls-4" d="M489.77,438.57c-6.47-.09-10.65,3.91-10.76,10.32s3.91,10.82,10.2,10.93,10.68-4,10.8-10.36S496.08,438.66,489.77,438.57Zm-.63,17.23c-3.6-.23-5.52-2.67-5.86-6.34a6.13,6.13,0,0,1,6.15-6.88,6.37,6.37,0,0,1,6.34,6.75A6.59,6.59,0,0,1,489.14,455.8Z"/><path class="cls-18" d="M394.9,438.57c-6.31,0-10.45,4.28-10.41,10.7s4.3,10.58,10.61,10.55,10.51-4.4,10.45-10.74S401.23,438.54,394.9,438.57Zm6.2,10.78c-.2,3.76-2.09,6.11-6.19,6.5-3.69-.45-5.83-2.51-6-6.4s2.31-6.83,6-6.87S401.3,445.39,401.1,449.35Z"/><path class="cls-12" d="M508,403a10.45,10.45,0,0,0-10.46,11,10.34,10.34,0,0,0,10.75,10.64A10.8,10.8,0,0,0,508,403Zm.18,17.53c-3.48.28-6.26-3.05-6.13-7.74.21-3,2.18-5.43,6.05-5.72,3.58-.27,6.14,2.88,6.08,6.93S512,420.25,508.16,420.57Z"/><path class="cls-18" d="M727.21,438.57c-6.45-.08-10.64,3.92-10.78,10.32s4,10.84,10.21,10.93c6.38.1,10.68-4,10.84-10.35S733.42,438.65,727.21,438.57ZM733,449.52c-.22,3.85-2.25,6-5.65,6.28a6.24,6.24,0,0,1-6.47-7c.24-3.79,2.12-6.18,6.16-6.23C730.66,442.56,733.21,445.54,733,449.52Z"/><path class="cls-25" d="M559.24,438.73c-4.46-1.24-5.87,1.07-5.33,6,.42,3.94.05,8,.11,11.94,0,1-.48,2.25,1.07,2.92,6.64,2.88,16.36-2.14,17.27-9C573.32,443.35,568.6,438.79,559.24,438.73Zm1.86,16.78c-5.68-.16-1.56-4.63-3.27-6.67,1.52-1.95-2.21-6.29,3.28-6.11,4,.13,6.68,1.86,6.87,6.17C568.17,453,565.36,455.63,561.1,455.51Z"/><path class="cls-11" d="M324.47,444.37c-2.3-4.73-9.16-7.55-15.64-5.47-4,1.28-.94,5.4-1.76,8.1a6.89,6.89,0,0,0,0,2c0,2.64-.05,5.28,0,7.92,0,1-.52,2.64,1.28,2.67,4.59.08,9.34.88,13.41-2.2C325.46,454.57,326.64,448.83,324.47,444.37Zm-10.06,11.16c-5.76.13-2.06-4.36-3.52-6.52,1.64-1.88-2.33-6.1,3-6.29,4.25-.14,7.24,2.54,7.25,6.45S318.51,455.44,314.41,455.53Z"/><path class="cls-14" d="M816.72,447.13c1.91-1.88,1.12-5.62-1.79-7.27-3.46-2-7.33-1.36-11.06-.61-.27.05-.45,1.18-.45,1.8,0,5.45,0,10.9,0,16.35,0,1.7.67,2.29,2.37,2.3,2,0,2-1.13,2.08-2.58.11-2-.55-4.1.58-6.07,3.9,2.24,1.81,10.35,9.3,8.31-.26-.68-.46-1.29-.72-1.88C815.53,454.1,812.67,451.14,816.72,447.13Zm-6.64.68c-1.72.16-2.44-.57-2.26-2.22.14-1.31-.64-3.21,1.76-3.24,1.68,0,3.37.14,3.53,2.42C813.14,446.81,812,447.64,810.08,447.81Z"/><path class="cls-4" d="M381.49,447.23c1.79-1.86,1.13-5.21-1.33-7.06-3.36-2.53-7.52-1.89-11-1.11-2.48.56-.89,4-1,6.17-.24,3.95-.06,7.93-.07,11.9,0,1.36-.1,2.59,2,2.58s2.6-.7,2.63-2.6-.59-4.08.74-6.21c5.85,8.62,5.85,8.62,9.13,8.48a15.24,15.24,0,0,0-.79-2.19C379.84,453.92,377.88,451,381.49,447.23Zm-6.75.65c-2.21.19-2.32-1.2-2.32-2.82s.16-3.05,2.31-2.89c1.79.14,3.18.82,3.32,2.55C378,447.21,376.55,447.72,374.74,447.88Z"/><path class="cls-6" d="M640.59,456.84c-1.57-3.13-3.49-5.8-.08-9.48,1.83-2,1.43-6-1.93-7.65s-7.34-1.32-11.05-.35c-.23.06-.37.86-.37,1.33,0,5.62,0,11.24,0,16.86,0,1.4.47,2.1,2,2.13s2.36-.5,2.45-2.23c.11-2.1-.65-4.42.89-6.65,5.77,8.73,5.77,8.73,9.19,8.62C641.21,458.35,641,457.57,640.59,456.84Zm-7.39-8.94c-1.82.18-1.79-1.35-1.82-2.94,0-1.75.4-3,2.48-2.79,1.82.17,3.32.76,3.23,2.95S635.47,447.78,633.2,447.9Z"/><path class="cls-18" d="M656.57,453.41c-.82-1.6-1.13-2.73.45-4.3,2.74-2.72,2.8-5.92.05-8.81-1.31-1.39-10.38-2.34-11.48-1.27a2.68,2.68,0,0,0-.58,1.77c0,5.63,0,11.27,0,16.9,0,1.5.62,2,2.1,2s2-.55,2.1-2c.16-2.18-.63-4.52.59-6.65,4.11,1.92,1.84,10.22,9.46,8.3C658.31,457.25,657.54,455.28,656.57,453.41Zm-5.09-5.55c-1.87.31-2.49-.7-2.39-2.57.08-1.51-.18-3.18,2.11-3.09,1.75.07,3.44.48,3.57,2.63S653.56,447.73,651.48,447.86Z"/><path class="cls-6" d="M735.74,423.26c-2.65-6.62-4.69-13-7.75-18.79-1.39-2.66-3.94-1.45-5,1.39-2,5.08-4.06,10.12-5.92,15.24-.33.89-2.22,2.41.19,3.14a2.87,2.87,0,0,0,3.44-1.25c3.7-5.21,6.44-5.16,10.6.16,1,1.29,2.24,1.3,3.56,1.1C735.53,424.14,735.89,423.57,735.74,423.26Zm-8.33-7.68c-.3.47-2.29.56-2.77.09-2-1.93,1-3.36,1-5.23C726.77,412.16,728.71,413.55,727.41,415.58Z"/><path class="cls-6" d="M920.59,420.73c-1.82-5-3.82-9.84-5.77-14.75-.56-1.42-1.13-2.69-3.08-2.67s-2.43,1.29-3,2.75c-1.89,4.93-3.93,9.8-5.73,14.76-.37,1-2.15,2.44-.17,3.33a2.61,2.61,0,0,0,3.89-1.85c.63-2.79,2.5-3.2,4.92-2.87,2.49-.38,4.56,0,5.25,3,.51,2.21,2.47,2.44,3.92,1.71C922.51,423.29,921,421.77,920.59,420.73Zm-11.13-5.31c.62-1.72,1.23-3.39,1.88-5.22,2,1.34,2.06,3.37,2.66,5.17A5.41,5.41,0,0,1,909.46,415.42Z"/><path class="cls-12" d="M401.6,421.15c-2-5.08-4-10.15-6-15.22-.55-1.4-1.09-2.73-3.07-2.61-1.61.09-2.25.93-2.78,2.31-2.06,5.39-4.23,10.75-6.38,16.1-.61,1.52-.63,2.62,1.68,2.59a3.2,3.2,0,0,0,2-.88c5.38-5.72,5.72-5.7,11.19,0a2.66,2.66,0,0,0,3.17.64C403,423.39,402,422.14,401.6,421.15Zm-11.35-5.72,2.18-5.57a12.74,12.74,0,0,1,2.46,5.57A6.2,6.2,0,0,1,390.25,415.43Z"/><path class="cls-12" d="M850.54,421.42c-2.11-5.38-4.32-10.72-6.38-16.11a2.5,2.5,0,0,0-2.49-1.95,2.66,2.66,0,0,0-3,2c-2.09,5.56-4.35,11.05-6.54,16.57-.68,1.73-.07,2.52,1.77,2.39a2.72,2.72,0,0,0,2.07-1.08c4.41-5.44,6.53-5.45,10.91,0a2.69,2.69,0,0,0,3.06,1C851.78,423.74,850.92,422.4,850.54,421.42Zm-9-11.76c.9,2.17,1.64,3.93,2.49,6C838.57,415.77,838.57,415.77,841.52,409.66Z"/><path class="cls-4" d="M618.13,441.58c-.62-1.62-1.09-3-3.32-2.9-2.07.06-2.32,1.51-2.84,2.84-2.3,5.81-4.57,11.63-7,17.87,2.09.22,3.6.82,4.85-1.06,3.4-5.13,7.3-5.19,10.5-.14,1.33,2.11,2.85,1.5,4.82,1.06C622.72,453.2,620.37,447.41,618.13,441.58Zm-1.47,9.32a2.2,2.2,0,0,1-3.13.1c-1.51-2,.62-3.43,1.51-5.22C616,447.46,617.93,448.93,616.66,450.9Z"/><path class="cls-4" d="M717,409.66c-.47-4.64-3.68-6.38-10.55-6.38-5.95,0-2.67,4.33-3.38,6.73A14.37,14.37,0,0,0,703,414c0,2.32-.05,4.63,0,6.94,0,1.51-.64,3.52,2.16,3.44,2.38-.07,2.1-1.77,2-3.16-.26-2.57.67-3.27,3.28-3.46C715.21,417.36,717.44,414.32,717,409.66Zm-7.58,4.3c-2.76.3-2.21-1.69-2.29-3.25s-.44-3.55,2.26-3.34c1.86.16,3.23,1.2,3.31,3C712.75,412.43,711.52,413.72,709.38,414Z"/><path class="cls-18" d="M364.24,442.08c-1.62-3-7.54-4.73-11.67-3.26-3,1.08-1.1,3.91-1.49,5.91a24.33,24.33,0,0,0-.05,4.44c0,2.8,0,5.6,0,8.4,0,1.36.37,2.22,2,2.08,1-.08,2.38,0,2.11-1.32-.95-4.81,2.1-5.3,5.62-5.7a4.92,4.92,0,0,0,2.85-1.79A7.48,7.48,0,0,0,364.24,442.08Zm-7.2,7.38c-2.82.16-1.54-2.22-1.92-3.49.19-1.54-.6-3.61,2.22-3.34,2.08.19,3.47,1.22,3.56,3.31C361,448.45,359.1,449.34,357,449.46Z"/></g></svg>